<svg width="24" height="24" viewBox="0 0 24 24" fill="none" xmlns="http://www.w3.org/2000/svg">
<path d="M15.75 2.5H8.25C5.0795 2.5 2.5 5.0795 2.5 8.25V15.75C2.5 18.9205 5.0795 21.5 8.25 21.5H15.75C18.9205 21.5 21.5 18.9205 21.5 15.75V8.25C21.5 5.0795 18.9205 2.5 15.75 2.5ZM12 17C9.243 17 7 14.757 7 12C7 9.243 9.243 7 12 7C14.757 7 17 9.243 17 12C17 14.757 14.757 17 12 17ZM17 8C16.4475 8 16 7.552 16 7C16 6.4475 16.4475 6 17 6C17.5525 6 18 6.4475 18 7C18 7.552 17.5525 8 17 8Z" fill="#465166"/>
<path d="M12 15.5C13.933 15.5 15.5 13.933 15.5 12C15.5 10.067 13.933 8.5 12 8.5C10.067 8.5 8.5 10.067 8.5 12C8.5 13.933 10.067 15.5 12 15.5Z" fill="#465166"/>
</svg>
