<svg width="24" height="24" viewBox="0 0 24 24" fill="none" xmlns="http://www.w3.org/2000/svg">
<path d="M11.9285 5C8.7895 5 5.8405 5.2345 4.2705 5.5625C3.224 5.797 2.3205 6.5 2.13 7.578C1.9405 8.703 1.75 10.1405 1.75 12.25C1.75 14.3595 1.9405 15.75 2.178 16.922C2.3685 17.9535 3.272 18.7035 4.3185 18.9375C5.983 19.2655 8.837 19.5 11.976 19.5C15.115 19.5 17.969 19.2655 19.634 18.9375C20.6805 18.703 21.584 18 21.7745 16.922C21.965 15.75 22.2025 14.3125 22.25 12.203C22.25 10.0935 22.012 8.656 21.7745 7.484C21.584 6.4525 20.6805 5.7025 19.634 5.4685C17.9695 5.2345 15.068 5 11.9285 5Z" stroke="#465166" stroke-width="3" stroke-miterlimit="10" stroke-linejoin="round"/>
<path d="M11.9285 5C8.7895 5 5.8405 5.2345 4.2705 5.5625C3.224 5.797 2.3205 6.5 2.13 7.578C1.9405 8.703 1.75 10.1405 1.75 12.25C1.75 14.3595 1.9405 15.75 2.178 16.922C2.3685 17.9535 3.272 18.7035 4.3185 18.9375C5.983 19.2655 8.837 19.5 11.976 19.5C15.115 19.5 17.969 19.2655 19.634 18.9375C20.6805 18.703 21.584 18 21.7745 16.922C21.965 15.75 22.2025 14.3125 22.25 12.203C22.25 10.0935 22.012 8.656 21.7745 7.484C21.584 6.4525 20.6805 5.7025 19.634 5.4685C17.9695 5.2345 15.068 5 11.9285 5ZM9.019 14.431V9.5695C9.019 8.75 9.9145 8.236 10.6345 8.6425L14.9365 11.0735C15.662 11.4835 15.662 12.5175 14.9365 12.9275L10.6345 15.3585C9.915 15.7645 9.019 15.2505 9.019 14.431Z" fill="#465166"/>
</svg>
